<svg width="1200" height="360" viewBox="0 0 1200 360" xmlns="http://www.w3.org/2000/svg" role="img">
<title>Field Methods — Blue Carbon Eelgrass Workshop</title>
<desc>Illustration of an eelgrass meadow beneath the water surface, with a sediment corer extending down into a layered sediment core, headed "Field Methods".</desc>
<defs>
  <linearGradient id="sky" x1="0" y1="0" x2="0" y2="1">
    <stop offset="0%" stop-color="#bfe3f0"/>
    <stop offset="100%" stop-color="#5fb3d1"/>
  </linearGradient>
  <linearGradient id="water" x1="0" y1="0" x2="0" y2="1">
    <stop offset="0%" stop-color="#2c8fb0"/>
    <stop offset="55%" stop-color="#1c6f92"/>
    <stop offset="100%" stop-color="#0f4c66"/>
  </linearGradient>
  <linearGradient id="sediment" x1="0" y1="0" x2="0" y2="1">
    <stop offset="0%" stop-color="#9c7a54"/>
    <stop offset="35%" stop-color="#7a5c3d"/>
    <stop offset="70%" stop-color="#553f29"/>
    <stop offset="100%" stop-color="#322417"/>
  </linearGradient>
</defs>

<rect x="0" y="0" width="1200" height="90" fill="url(#sky)"/>
<rect x="0" y="90" width="1200" height="180" fill="url(#water)"/>
<rect x="0" y="270" width="1200" height="90" fill="url(#sediment)"/>

<circle cx="1040" cy="55" r="26" fill="#fff6d8" opacity="0.9"/>

<g opacity="0.25" stroke="#eaf7fb" stroke-width="2" fill="none" stroke-linecap="round">
  <path d="M0 60 Q 60 45 120 60 T 240 60 T 360 60"/>
  <path d="M700 40 Q 760 25 820 40 T 940 40 T 1060 40"/>
</g>

<g stroke="#2a1d12" stroke-width="1" opacity="0.35">
  <line x1="0" y1="285" x2="1200" y2="285"/>
  <line x1="0" y1="300" x2="1200" y2="300"/>
  <line x1="0" y1="315" x2="1200" y2="315"/>
  <line x1="0" y1="330" x2="1200" y2="330"/>
  <line x1="0" y1="345" x2="1200" y2="345"/>
</g>

<g fill="none" stroke-linecap="round">
  <path d="M60 270 C 50 200 75 150 55 90" stroke="#1f7a4d" stroke-width="6" opacity="0.85"/>
  <path d="M95 270 C 110 210 80 160 100 100" stroke="#2c9a5f" stroke-width="6" opacity="0.85"/>
  <path d="M135 270 C 120 195 150 145 130 80" stroke="#1f7a4d" stroke-width="6" opacity="0.8"/>
  <path d="M175 270 C 190 220 165 170 185 110" stroke="#2c9a5f" stroke-width="6" opacity="0.8"/>

  <path d="M900 270 C 890 200 915 150 895 95" stroke="#1f7a4d" stroke-width="6" opacity="0.8"/>
  <path d="M935 270 C 950 210 920 160 940 105" stroke="#2c9a5f" stroke-width="6" opacity="0.8"/>
  <path d="M975 270 C 960 195 990 145 970 85" stroke="#1f7a4d" stroke-width="6" opacity="0.8"/>
  <path d="M1015 270 C 1030 220 1005 170 1025 115" stroke="#2c9a5f" stroke-width="6" opacity="0.8"/>
  <path d="M1150 270 C 1140 200 1165 150 1145 95" stroke="#1f7a4d" stroke-width="6" opacity="0.7"/>
  <path d="M1185 270 C 1195 225 1170 175 1190 110" stroke="#2c9a5f" stroke-width="6" opacity="0.7"/>
</g>

<!-- Sediment corer: casing in the water column, core sample visible extending deep into the sediment -->
<rect x="225" y="150" width="18" height="195" rx="3" fill="#e8e2d5" stroke="#8a836f" stroke-width="1.5" opacity="0.95"/>
<rect x="225" y="150" width="18" height="20" fill="#c9c2b0"/>
<rect x="225" y="270" width="18" height="75" fill="#332417" opacity="0.9"/>

<!-- Section wayfinding tag -->
<rect x="40" y="28" width="168" height="32" rx="16" fill="#0f4c66" opacity="0.55"/>
<text x="124" y="49" text-anchor="middle" font-family="Helvetica, Arial, sans-serif" font-size="13" font-weight="600" letter-spacing="1" fill="#eaf7fb">SECTION 3 OF 4</text>

<text x="600" y="192" text-anchor="middle" font-family="Helvetica, Arial, sans-serif" font-size="46" font-weight="600" fill="#ffffff">Field Methods</text>
<text x="600" y="226" text-anchor="middle" font-family="Helvetica, Arial, sans-serif" font-size="17" letter-spacing="1" fill="#dff2f8">CORE COLLECTION &#8226; EQUIPMENT &amp; DATASHEETS &#8226; CORING HOW-TO VIDEOS</text>
</svg>
